<svg width="334" height="201" viewBox="0 0 334 201" fill="none" xmlns="http://www.w3.org/2000/svg">
<path d="M58.7091 174.765L0 200.397H334L276.908 174.765H58.7091Z" fill="#8C96FF"/>
<path d="M147.177 127.104L136.085 145.125L157.36 170.392H178.814L198.815 144.698L186.434 127.104H147.177Z" fill="#3F4553"/>
<path d="M136.085 145.124C136.085 145.124 88.3695 148.814 76.3999 161.311C64.4303 173.809 70.0616 187.379 81.7206 187.379C103.182 187.379 148.59 188.692 170.075 187.379L171.357 158.119L136.085 145.124Z" fill="#3F4553"/>
<path d="M197.58 144.503C197.58 144.503 247.548 148.814 259.518 161.312C271.487 173.809 264.59 182.09 254.197 187.379C239.571 194.828 186.853 193.593 159.512 184.544L164.568 158.119L197.58 144.503Z" fill="#3F4553"/>
<path d="M199.778 169.048L196.399 160.318L200.609 158.446C200.609 158.446 200.027 153.28 205.177 152.286C210.326 151.292 216.463 154.616 222.444 151.936C227.959 149.466 234.708 147.191 241.008 150.608C241.94 151.113 242.375 152.224 242.056 153.234L242.033 153.311C241.715 154.329 240.72 154.958 239.656 154.849C237.435 154.624 233.473 154.671 229.559 157.04C222.809 161.141 199.778 169.048 199.778 169.048Z" fill="#FEBBA0"/>
<path d="M239.089 169.545C239.089 169.545 205.744 163.619 135.503 162.702L128.722 171.899C128.722 171.899 146.198 181.888 162.603 185.5C179.008 189.111 235.641 200.483 260.931 182.967L239.089 169.545Z" fill="#3F4553"/>
<path d="M162.603 185.507C145.787 181.623 128.193 171.665 128.193 171.665L129.242 169.887" stroke="#6E758F" stroke-width="1.5925" stroke-miterlimit="10" stroke-linecap="round"/>
<path d="M135.502 162.702C135.502 162.702 212.671 160.939 233.263 172.885" stroke="#6E758F" stroke-width="1.5925" stroke-miterlimit="10" stroke-linecap="round"/>
<path d="M97.6201 167.705C97.6201 167.705 111.71 161.102 121.342 165.429" stroke="#6E758F" stroke-width="1.5925" stroke-miterlimit="10" stroke-linecap="round"/>
<path d="M130.345 170.376L135.495 162.531L130.345 159.743C130.345 159.743 128.543 155.23 123.494 153.832C118.438 152.441 114.841 154.686 109.086 151.548C103.78 148.651 97.2246 145.862 90.6844 148.775C89.7213 149.202 89.1931 150.274 89.4339 151.307L89.4494 151.385C89.6902 152.426 90.6301 153.125 91.6942 153.102C93.9235 153.047 97.8771 153.405 101.59 156.077C107.998 160.69 130.345 170.376 130.345 170.376Z" fill="#FEBBA0"/>
<path d="M174.682 162.982L195.778 160.908" stroke="#6E758F" stroke-width="1.5925" stroke-miterlimit="10" stroke-linecap="round"/>
<path d="M147.853 153.84L159.62 162.361" stroke="#6E758F" stroke-width="1.5925" stroke-miterlimit="10" stroke-linecap="round"/>
<path d="M144.815 37.8803C145.312 42.7427 149.545 46.2847 154.268 45.8031C158.991 45.3215 162.416 40.9873 161.919 36.1326C161.422 31.2702 157.189 27.7283 152.466 28.2098C147.751 28.6837 144.326 33.0179 144.815 37.8803Z" fill="#3F4553"/>
<path d="M162.455 41.4133C162.455 41.4133 147.448 39.1452 145.087 24.9852C143.005 12.4718 151.402 2.44405 160.606 0.711914C160.614 0.711914 182.728 34.7954 162.455 41.4133Z" fill="#3F4553"/>
<path d="M162.797 2.05698C161.694 2.6007 160.645 3.31531 159.69 4.23963C151.138 12.4654 156.552 28.4352 164.211 35.6434C168.452 39.6281 174.65 41.4845 180.064 39.4495C187.979 36.4745 190.457 27.5109 188.849 19.526C187.653 13.5761 184.352 7.96024 179.481 4.46489C174.611 0.977309 168.032 -0.498505 162.797 2.05698Z" fill="#FDBCA0"/>
<path d="M161.375 30.8271C159.876 32.3107 157.266 32.9165 155.262 32.2097C153.258 31.5029 151.611 29.6154 151.091 27.425C150.625 25.4598 151.13 23.2228 152.575 22.0188C154.019 20.8149 156.621 20.8925 157.856 22.4538L161.375 30.8271Z" fill="#FDBCA0"/>
<path d="M159.185 25.6084L160.761 53.8353C160.971 59.055 165.204 63.2028 170.424 63.3038C176.452 63.4281 181.182 58.1617 180.413 52.1808L177.228 25.9735L159.185 25.6084Z" fill="#FDBCA0"/>
<path d="M179.372 43.6673L178.976 39.7991C178.976 39.7991 171.208 42.1837 164.21 35.6357C164.21 35.6435 168.241 42.9993 179.372 43.6673Z" fill="#DF8370"/>
<path d="M156.101 21.3424C166.215 20.822 175.442 14.0333 180.538 5.28713C180.538 5.28713 171.232 -3.54445 157.632 1.6209C146.361 5.89299 156.101 21.3424 156.101 21.3424Z" fill="#3F4553"/>
<path d="M157.211 27.8359C156.046 27.9524 155.029 27.3232 154.936 26.43C154.866 25.7542 155.339 25.1251 156.07 24.7988" stroke="#444359" stroke-width="1.1144" stroke-miterlimit="10" stroke-linecap="round"/>
<path d="M181.508 25.63C181.741 24.9231 182.145 24.3639 182.596 23.8357L182.813 24.5192C182.301 24.325 182.021 24.0299 181.734 23.7425C181.462 23.4395 181.221 23.1366 181.004 22.8104C180.569 22.1657 180.204 21.4821 179.939 20.7598C180.483 21.3113 180.98 21.8783 181.501 22.422C181.765 22.6861 182.013 22.958 182.285 23.191C182.542 23.4162 182.844 23.6493 183.054 23.7036L183.683 23.8512L183.272 24.3872C182.852 24.9386 182.386 25.4513 181.741 25.8241C181.664 25.8707 181.571 25.8397 181.524 25.7698C181.501 25.7154 181.501 25.6688 181.508 25.63Z" fill="#444359"/>
<path d="M183.784 28.0998C183.473 28.7367 182.945 29.2882 182.262 29.6222C181.586 29.9718 180.747 30.0417 180.001 29.8242C179.24 29.6145 178.65 29.1173 178.145 28.6047C177.92 28.3251 177.694 28.0377 177.508 27.7425C177.345 27.424 177.174 27.1133 177.05 26.7871C177.337 27.0046 177.586 27.2376 177.834 27.4706L178.603 28.1076C179.147 28.4649 179.66 28.8532 180.25 28.9931C180.817 29.1717 181.423 29.1639 182.021 29.0008C182.611 28.8299 183.202 28.4959 183.784 28.0998Z" fill="#444359"/>
<path d="M175.652 17.9475C175.955 18.8486 176.126 19.7807 176.064 20.7827C176.025 21.272 175.908 21.808 175.543 22.2818C175.17 22.7634 174.541 22.9731 173.99 22.9575C173.423 22.9498 172.863 22.7012 172.483 22.3517C172.087 22.0022 171.776 21.5982 171.543 21.171C171.077 20.3089 170.782 19.4078 170.634 18.4602C170.611 18.3126 170.712 18.1728 170.859 18.1417C170.999 18.1184 171.124 18.2039 171.162 18.3282L171.17 18.3437C171.434 19.1826 171.784 20.0292 172.234 20.7594C172.685 21.4662 173.298 22.1187 174.021 22.0954C174.378 22.1109 174.712 22.0177 174.914 21.7614C175.139 21.5128 175.248 21.1089 175.31 20.6972C175.427 19.8661 175.349 18.9495 175.209 18.0718V18.0563C175.186 17.932 175.279 17.8077 175.403 17.7922C175.504 17.7767 175.613 17.8466 175.652 17.9475Z" fill="#444359"/>
<path d="M186.93 16.1846C187.186 16.9458 187.326 17.7225 187.311 18.5536C187.303 18.9653 187.225 19.4158 186.961 19.843C186.705 20.2935 186.13 20.5732 185.633 20.5499C185.113 20.5421 184.639 20.2702 184.336 19.9518C184.025 19.6255 183.784 19.276 183.606 18.9032C183.256 18.1575 183.039 17.3963 182.93 16.5962C182.907 16.4486 183.015 16.3088 183.171 16.2855C183.303 16.27 183.427 16.3477 183.466 16.4719L183.474 16.4875C183.699 17.1866 183.971 17.9012 184.32 18.5226C184.67 19.1284 185.144 19.711 185.664 19.6799C185.928 19.6877 186.138 19.61 186.278 19.3925C186.433 19.175 186.511 18.841 186.557 18.4915C186.635 17.7924 186.573 17.0234 186.487 16.2933V16.2778C186.472 16.1535 186.565 16.037 186.689 16.0137C186.79 16.0137 186.899 16.0836 186.93 16.1846Z" fill="#444359"/>
<path d="M195.319 56.3958C195.249 51.6577 179.885 47.8672 179.885 47.8672C178.921 48.9313 177.267 50.7256 170.3 50.7256C163.635 50.7256 160.971 49.0012 159.93 47.8672H153.336C151.867 47.8672 150.524 48.7061 149.91 50.0421C136.698 78.9447 144.123 111.226 147.168 127.095C147.448 128.555 175.022 127.569 187.458 128.555C190.145 128.781 195.583 73.6163 195.319 56.3958Z" fill="#FEE6C6"/>
<path d="M163.231 97.2692C164.598 86.2239 166.268 79.5982 167.55 81.7731C168.684 83.6994 168.055 93.3621 166.353 102.683C166.361 102.683 162.648 102 163.231 97.2692Z" fill="#FEBBA0"/>
<path d="M172.257 97.2692C170.89 86.2239 169.22 79.5982 167.939 81.7731C166.805 83.6994 167.434 93.3621 169.135 102.683C169.127 102.683 172.84 102 172.257 97.2692Z" fill="#FEBBA0"/>
<path d="M217.79 94.5268H200.43L203.187 112.159L171.682 96.7871C171.574 95.6065 171.426 94.1462 171.248 92.6005C170.059 92.6005 168.863 92.6005 167.674 92.585C167.682 93.9287 167.706 94.8375 167.706 94.8375C167.706 94.8375 167.092 102.947 168.498 105.65C171.17 110.792 198.503 127.352 206.092 129.317C206.566 129.441 207.04 129.535 207.514 129.597C214.838 130.63 219.693 126.521 219.639 119.126L217.79 94.5268Z" fill="#FEBBA0"/>
<path d="M163.931 92.5225C163.659 94.2624 163.418 95.9401 163.232 97.2684L132.636 111.436L133.925 94.5342H116.565L114.724 119.149C114.677 126.544 119.532 130.645 126.849 129.62C127.323 129.55 127.797 129.457 128.27 129.34C135.859 127.375 161.282 113.634 166.711 105.618C168.319 103.249 167.558 95.2721 167.558 95.2721C167.558 95.2721 167.558 94.1692 167.527 92.6001C166.331 92.5768 165.135 92.5535 163.931 92.5225Z" fill="#FEBBA0"/>
<path d="M138.368 104.174C145.157 84.0956 145.103 84.08 153.437 47.876C147.86 48.2566 147.285 47.3478 142.889 49.6314C129.7 56.4823 117.28 78.9846 113.621 104.174H138.368Z" fill="#FEE6C6"/>
<path d="M198.814 102.194C194.822 87.9713 179.885 47.8758 179.885 47.8758C194.822 47.3709 215.203 66.8439 220.081 99.5914L198.814 102.194Z" fill="#FEE6C6"/>
<path d="M195.326 70.79L192.18 96.6401" stroke="#EED2AD" stroke-width="1.5925" stroke-miterlimit="10" stroke-linecap="round"/>
<path d="M141.226 75.0312L143.727 102.683" stroke="#EED2AD" stroke-width="1.5925" stroke-miterlimit="10" stroke-linecap="round"/>
</svg>
